<?xml version="1.0" encoding="utf-8"?>
<!-- Generator: Adobe Illustrator 26.0.0, SVG Export Plug-In . SVG Version: 6.00 Build 0)  -->
<svg version="1.1" id="Capa_1" xmlns="http://www.w3.org/2000/svg" xmlns:xlink="http://www.w3.org/1999/xlink" x="0px" y="0px"
	 viewBox="0 0 425.2 425.2" style="enable-background:new 0 0 425.2 425.2;" xml:space="preserve">
<style type="text/css">
	.st0{fill:#377EF9;}
	.st1{fill:none;stroke:#000000;stroke-width:6;stroke-linejoin:round;stroke-miterlimit:10;}
	.st2{fill:#FFFFFF;stroke:#000000;stroke-width:6;stroke-miterlimit:10;}
	.st3{fill:#FF006E;stroke:#000000;stroke-width:6;stroke-miterlimit:10;}
	.st4{fill:#FFD124;stroke:#000000;stroke-width:6;stroke-miterlimit:10;}
	.st5{fill:#FFFFFF;stroke:#000000;stroke-width:6;stroke-linejoin:round;stroke-miterlimit:10;}
	.st6{fill:none;stroke:#000000;stroke-width:6;stroke-miterlimit:10;}
</style>
<rect x="39" y="17.1" class="st0" width="371.7" height="155.1"/>
<polyline class="st1" points="25.6,160.4 25.6,32.5 395.6,32.5 395.6,184.5 166.7,184.5 "/>
<line class="st1" x1="230.8" y1="64.7" x2="358" y2="64.7"/>
<line class="st1" x1="250" y1="102.6" x2="377.2" y2="102.6"/>
<line class="st1" x1="224.3" y1="141.3" x2="351.5" y2="141.3"/>
<g>
	<path class="st2" d="M249.7,320.5c0,0-15.1,3.8-19.1,18.9v54.8c0,3.1,2.5,5.6,5.6,5.6h52.2c3.1,0,5.6-2.5,5.6-5.6v-54.6
		c-1.6-10.5-16.8-20.6-16.8-20.6"/>
	<path class="st3" d="M288.9,299c1.3-16.5-12.4-30.1-28.8-28.8c-13,1-23.5,11.5-24.5,24.5c-1.3,16.5,12.4,30.1,28.8,28.8
		C277.4,322.5,287.9,311.9,288.9,299z"/>
</g>
<g>
	<path class="st2" d="M352,320.5c0,0-15.1,3.8-19.1,18.9v54.8c0,3.1,2.5,5.6,5.6,5.6h52.2c3.1,0,5.6-2.5,5.6-5.6v-54.6
		c-1.6-10.5-16.8-20.6-16.8-20.6"/>
	<path class="st4" d="M391.2,299c1.3-16.5-12.4-30.1-28.8-28.8c-13,1-23.5,11.5-24.5,24.5c-1.3,16.5,12.4,30.1,28.8,28.8
		C379.6,322.5,390.1,311.9,391.2,299z"/>
</g>
<g>
	<path class="st2" d="M54.3,320.5c0,0-15.1,3.8-19.1,18.9v54.8c0,3.1,2.5,5.6,5.6,5.6H93c3.1,0,5.6-2.5,5.6-5.6v-54.6
		C97,329.1,81.8,319,81.8,319"/>
	<path class="st2" d="M147.5,320.5c0,0-15.1,3.8-19.1,18.9v54.8c0,3.1,2.5,5.6,5.6,5.6h52.2c3.1,0,5.6-2.5,5.6-5.6v-54.6
		C190.2,329.1,175,319,175,319"/>
	<circle class="st2" cx="115" cy="83.1" r="25.4"/>
	<path class="st5" d="M146.4,319.9h-31.3H115H83.3V142.7L61.8,206c-21.1,14.8-25.2-8.4-25.2-8.4s11.5-56.6,24.2-74.8
		c9.9-14.3,29.8-13.4,29.8-13.4l47.8-0.7l64.5-34.1c0,0,23.5,0,13.3,24.3l-67.9,37.5L146.4,319V319.9L146.4,319.9z"/>
	<path class="st4" d="M147.2,273.3c-7.8,4.2-13.2,12.2-13.9,21.4c-0.8,10.7,4.6,20.2,13.1,25.2c4.6,2.7,10,4.1,15.8,3.6
		c13-1,23.5-11.5,24.5-24.5c1.3-16.5-12.4-30.1-28.8-28.8C154.1,270.5,150.5,271.6,147.2,273.3L147.2,273.3z"/>
	<path class="st3" d="M83.3,275.8c6.7,5.3,10.9,13.8,10.1,23.2c-0.6,7.6-4.4,14.3-10.1,18.8l0,0c-4.1,3.3-9,5.2-14.4,5.6
		c-16.4,1.3-30.1-12.3-28.8-28.8c1-13,11.5-23.5,24.5-24.5C71.7,269.6,78.2,271.8,83.3,275.8"/>
	<line class="st6" x1="115" y1="205.4" x2="115" y2="319.3"/>
</g>
</svg>
