<svg id="Capa_1" data-name="Capa 1" xmlns="http://www.w3.org/2000/svg" viewBox="0 0 359.23 356.94"><defs><style>.cls-1{fill:#1b75d7;}.cls-2{fill:#fff;}</style></defs><circle class="cls-1" cx="175.48" cy="180.07" r="170.82" transform="translate(-75.93 176.82) rotate(-45)"/><rect class="cls-2" x="13.59" y="132.83" width="185.66" height="88.77" rx="12.48"/><path class="cls-1" d="M63.62,186.68l-2.24,23.71-45,3.52q.32-18.63.72-37.06t1-37.06H45.89q-1.23,11.7-2.35,23.36t-1.6,23.53c1.67.07,3.33.1,5,.1h5c2,0,4,0,5.87-.05S61.62,186.68,63.62,186.68Z"/><path class="cls-1" d="M133.47,212.52,107,215.94l-3.2-12.07H91.6l-2.67,12.07L61.7,213.27,83,142.14l29.69-1.5Zm-31.61-25L97.8,169l-4,18.58Z"/><path class="cls-1" d="M196.75,198.1a16.1,16.1,0,0,1-6,13.09,23.76,23.76,0,0,1-6.27,3.66,44.54,44.54,0,0,1-7.4,2.21,56.41,56.41,0,0,1-7.72,1.07q-3.87.27-7.23.27t-6.87-.24q-3.54-.24-7.07-.83a60.14,60.14,0,0,1-6.94-1.58,38.52,38.52,0,0,1-6.47-2.48l-.1-68.78a64.6,64.6,0,0,1,6.35-2.22c2.25-.66,4.53-1.21,6.87-1.65s4.65-.79,7-1,4.56-.35,6.73-.35a62.31,62.31,0,0,1,7.67.48,43.05,43.05,0,0,1,7.45,1.61,32.76,32.76,0,0,1,6.67,2.91,21.67,21.67,0,0,1,5.42,4.4,19.4,19.4,0,0,1,3.63,6.09,22.73,22.73,0,0,1,1.31,8,17.92,17.92,0,0,1-.85,5.61,15.61,15.61,0,0,1-2.46,4.7,15.24,15.24,0,0,1-3.9,3.55,16.78,16.78,0,0,1-5.18,2.16,23.28,23.28,0,0,1,6.33,2.67,18.59,18.59,0,0,1,8,9.94A20.32,20.32,0,0,1,196.75,198.1Zm-34.71-13a14,14,0,0,0-3,.32l-.21,12.18c.53.11,1.06.21,1.57.29a8.86,8.86,0,0,0,1.52.14,14,14,0,0,0,2.46-.24,7.18,7.18,0,0,0,2.51-1,6.05,6.05,0,0,0,1.95-2,6.12,6.12,0,0,0,.77-3.26,6.38,6.38,0,0,0-.77-3.31,6,6,0,0,0-1.9-2,6.46,6.46,0,0,0-2.45-1A14,14,0,0,0,162,185.07Zm7.58-17.41A5.11,5.11,0,0,0,169,165a5.93,5.93,0,0,0-1.57-1.79,6.44,6.44,0,0,0-2-1,6.81,6.81,0,0,0-1.95-.32,6.65,6.65,0,0,0-2.08.32,16.81,16.81,0,0,0-2,.75l-.32,11.85a27.2,27.2,0,0,0,3-.21,12.51,12.51,0,0,0,3.5-.94,7.52,7.52,0,0,0,2.86-2.13A5.93,5.93,0,0,0,169.62,167.66Z"/><path class="cls-2" d="M253,139.63c-.21,3.35-.41,6.66-.58,9.93s-.42,6.59-.7,9.93l-22.64,1.18-.54,6.73h15.92L243.27,184l-16,.54-.53,7.79h22.64q-.31,5.88-.67,11.67t-.61,11.62l-46,1.07,1.7-77Z"/><path class="cls-2" d="M337.37,138.77l-4.92,78.4-24.35,1.07.22-41.34-11,33.33h-9.4l-8.44-29.8-.11,34.6-24.67.75,1.07-73.8,27.45-1.07,10.89,35.35,14.53-37.49Z"/><path class="cls-2" d="M36,103.75l-.84,8.48a4,4,0,0,0-.87-.22,6.36,6.36,0,0,0-.87-.06,5.82,5.82,0,0,0-2.12.39,4.84,4.84,0,0,0-1.78,1.2,5.64,5.64,0,0,0-1.23,2,7.9,7.9,0,0,0-.46,2.84,5.71,5.71,0,0,0,.25,1.8,3.32,3.32,0,0,0,.7,1.27,2.79,2.79,0,0,0,1.06.74,3.68,3.68,0,0,0,1.35.24,4.32,4.32,0,0,0,1.16-.16,8.79,8.79,0,0,0,2.33-1,10.16,10.16,0,0,0,1-.71L35.1,130a8.21,8.21,0,0,1-1.27.72,13.08,13.08,0,0,1-1.4.54,10.55,10.55,0,0,1-1.45.35,8.4,8.4,0,0,1-1.38.12,7,7,0,0,1-3.56-.94,9.4,9.4,0,0,1-2.87-2.59,13.21,13.21,0,0,1-1.92-3.89,16.3,16.3,0,0,1-.7-4.83,27.54,27.54,0,0,1,.74-6.48,18.15,18.15,0,0,1,2.16-5.33A11.22,11.22,0,0,1,27,104a8.92,8.92,0,0,1,4.87-1.33,10.39,10.39,0,0,1,2.12.22A5.85,5.85,0,0,1,36,103.75Z"/><path class="cls-2" d="M55.35,117.81a19.31,19.31,0,0,1-.32,3.53,16.52,16.52,0,0,1-.91,3.18,14.33,14.33,0,0,1-1.44,2.72,10.3,10.3,0,0,1-1.91,2.12,8.53,8.53,0,0,1-2.31,1.38,7.08,7.08,0,0,1-2.64.49,7.23,7.23,0,0,1-2.58-.46,8.56,8.56,0,0,1-2.29-1.3,9.73,9.73,0,0,1-1.93-2,12.72,12.72,0,0,1-1.48-2.61,16,16,0,0,1-.94-3.08,16.7,16.7,0,0,1-.34-3.43,18.54,18.54,0,0,1,.31-3.43,17.29,17.29,0,0,1,.91-3.16A14.73,14.73,0,0,1,38.92,109a10.67,10.67,0,0,1,1.89-2.15,8.38,8.38,0,0,1,2.26-1.41,6.76,6.76,0,0,1,2.57-.5,8.74,8.74,0,0,1,4,.9,8.93,8.93,0,0,1,3.07,2.58,12.69,12.69,0,0,1,2,4.06A19.07,19.07,0,0,1,55.35,117.81Zm-6.68.53a7.72,7.72,0,0,0-.18-1.68,5.53,5.53,0,0,0-.55-1.45,3.18,3.18,0,0,0-.9-1,2,2,0,0,0-1.22-.39,2.39,2.39,0,0,0-1.27.34,3.23,3.23,0,0,0-.95.93,4.76,4.76,0,0,0-.61,1.39,6.53,6.53,0,0,0-.21,1.67,8,8,0,0,0,.18,1.69,6,6,0,0,0,.54,1.53,3.39,3.39,0,0,0,.9,1.1,1.94,1.94,0,0,0,1.24.42,2.25,2.25,0,0,0,1.27-.37,3.15,3.15,0,0,0,1-1,5.2,5.2,0,0,0,.6-1.46A6.88,6.88,0,0,0,48.67,118.34Z"/><path class="cls-2" d="M76.84,103.19l-1.08,27.24-7.88,1-4.21-14.58L63,131.67H56.25l.54-28.48,7.51-.48,5.2,14.46.24-13.66Z"/><path class="cls-2" d="M93.46,121.71a14,14,0,0,1-.72,4.75,9,9,0,0,1-1.95,3.29,7.57,7.57,0,0,1-2.9,1.91,10.22,10.22,0,0,1-3.57.61,5.44,5.44,0,0,1-1.61-.26,15.55,15.55,0,0,1-1.79-.65c-.6-.26-1.18-.54-1.73-.84s-1-.59-1.48-.86l.66-7.87a9.58,9.58,0,0,0,5.89,2.09l.69,0a2.61,2.61,0,0,0,.78-.18,1.63,1.63,0,0,0,.62-.45,1.31,1.31,0,0,0,.26-.87,1.15,1.15,0,0,0-.18-.65,1.52,1.52,0,0,0-.47-.44,2.21,2.21,0,0,0-.65-.26,4.51,4.51,0,0,0-.7-.13,5,5,0,0,0-.65,0h-.48a5,5,0,0,1-2.35-.55,5.33,5.33,0,0,1-1.82-1.53,7.43,7.43,0,0,1-1.18-2.41,11.07,11.07,0,0,1-.42-3.15,12,12,0,0,1,.71-4.24,9.94,9.94,0,0,1,1.91-3.2,8.51,8.51,0,0,1,2.74-2,7.84,7.84,0,0,1,3.21-.7c.49,0,1,0,1.51.07a12.05,12.05,0,0,1,1.56.25,13.15,13.15,0,0,1,1.51.46,8,8,0,0,1,1.4.71l-.57,8.15a15.22,15.22,0,0,0-2.15-.77,8,8,0,0,0-2.18-.31h-.51a3.63,3.63,0,0,0-.64.06,4.26,4.26,0,0,0-.69.15,2.62,2.62,0,0,0-.61.27,1.27,1.27,0,0,0-.44.45,1.19,1.19,0,0,0-.15.66,1,1,0,0,0,.25.69,1.28,1.28,0,0,0,.6.35,3,3,0,0,0,.81.11c.3,0,.59,0,.88,0l.81-.06a4.44,4.44,0,0,1,.62,0,4.9,4.9,0,0,1,2.16.68,5.35,5.35,0,0,1,1.63,1.55,7.25,7.25,0,0,1,1,2.3A11.73,11.73,0,0,1,93.46,121.71Z"/><path class="cls-2" d="M112.39,109.66c0,1,0,2.08-.1,3.27s-.19,2.43-.35,3.7-.36,2.56-.62,3.86a35.19,35.19,0,0,1-.95,3.77,25.85,25.85,0,0,1-1.33,3.38,13.16,13.16,0,0,1-1.75,2.76,7.61,7.61,0,0,1-2.2,1.84,5.47,5.47,0,0,1-2.7.68,5.78,5.78,0,0,1-3-.76,7,7,0,0,1-2.2-2,11.2,11.2,0,0,1-1.51-3,23.27,23.27,0,0,1-.91-3.59,35.14,35.14,0,0,1-.46-3.88c-.09-1.32-.13-2.59-.13-3.8,0-1.88.07-3.75.21-5.62s.34-3.73.6-5.59l7,.36q-.4,3.15-.69,6.34t-.3,6.39q0,.35,0,1c0,.45,0,.95.08,1.5s.1,1.13.17,1.71a13,13,0,0,0,.31,1.6,4.91,4.91,0,0,0,.47,1.18.79.79,0,0,0,.66.46,1,1,0,0,0,.78-.55,6.08,6.08,0,0,0,.61-1.47,20.64,20.64,0,0,0,.45-2.13c.14-.81.25-1.64.34-2.51s.16-1.74.21-2.61.1-1.68.14-2.43.06-1.42.07-2,0-1,0-1.29c0-1,0-2.08,0-3.12s-.06-2.07-.11-3.1h7C112.33,105.88,112.39,107.76,112.39,109.66Z"/><path class="cls-2" d="M126.78,121.35l-.63,8.92-12.66,1.32.48-28.68h7.82l-1.11,18.44Z"/><path class="cls-2" d="M141,103.67l-.15,8.52-4.48.24-.54,18.64-6.34.44-.57-18.64-4.48.32.18-9.48Z"/><path class="cls-2" d="M160.16,116.61a19.2,19.2,0,0,1-.32,3.52,16.62,16.62,0,0,1-.91,3.19,14.07,14.07,0,0,1-1.44,2.72,10.57,10.57,0,0,1-1.91,2.12,8.49,8.49,0,0,1-2.31,1.37,7.08,7.08,0,0,1-2.64.49,7.23,7.23,0,0,1-2.58-.46,8.8,8.8,0,0,1-2.29-1.29,10.26,10.26,0,0,1-1.93-2,12.72,12.72,0,0,1-1.48-2.61,16.36,16.36,0,0,1-.94-3.09,16.63,16.63,0,0,1-.34-3.43,18.44,18.44,0,0,1,.32-3.42,17.38,17.38,0,0,1,.9-3.17,14.73,14.73,0,0,1,1.44-2.73,11,11,0,0,1,1.89-2.15,8.1,8.1,0,0,1,2.26-1.4,6.58,6.58,0,0,1,2.57-.51,8.61,8.61,0,0,1,7,3.49,12.49,12.49,0,0,1,2,4.06A19,19,0,0,1,160.16,116.61Zm-6.68.52a7.86,7.86,0,0,0-.18-1.68,5.46,5.46,0,0,0-.55-1.44,3.22,3.22,0,0,0-.9-1,2,2,0,0,0-1.22-.39,2.42,2.42,0,0,0-1.26.34,3.07,3.07,0,0,0-1,.94,4.59,4.59,0,0,0-.61,1.38,6.55,6.55,0,0,0-.21,1.68,8.16,8.16,0,0,0,.18,1.69,5.81,5.81,0,0,0,.54,1.52,3.33,3.33,0,0,0,.9,1.11,1.94,1.94,0,0,0,1.24.42,2.25,2.25,0,0,0,1.27-.37,3.19,3.19,0,0,0,.95-1,5.14,5.14,0,0,0,.6-1.45A6.91,6.91,0,0,0,153.48,117.13Z"/><path class="cls-2" d="M178.82,112.63a18.78,18.78,0,0,1-.2,2.84,10.83,10.83,0,0,1-.64,2.34,8.54,8.54,0,0,1-1.13,2,10.81,10.81,0,0,1-1.67,1.73l3.58,8.51L172,131.79l-2.32-8.55-1.86.08-.27,8.35h-6.46q.07-4.57.14-9.12t.16-9.11c0-1.54,0-3.07.06-4.58s.06-3,.12-4.58a16.35,16.35,0,0,1,2.07-.87,17.17,17.17,0,0,1,2.05-.53,18.35,18.35,0,0,1,2.09-.26c.71-.05,1.43-.07,2.17-.07a9,9,0,0,1,3.32.63,8.12,8.12,0,0,1,2.83,1.9,9.51,9.51,0,0,1,2,3.15A12.11,12.11,0,0,1,178.82,112.63Zm-6.73.64a6.73,6.73,0,0,0-.17-1.54,4.11,4.11,0,0,0-.51-1.22,2.49,2.49,0,0,0-.85-.8,2.34,2.34,0,0,0-1.18-.29,3.68,3.68,0,0,0-.58,0,2.73,2.73,0,0,0-.56.15l-.24,7.47h.36a4.15,4.15,0,0,0,1.32-.22,3.58,3.58,0,0,0,1.2-.68,3.43,3.43,0,0,0,.87-1.19A4,4,0,0,0,172.09,113.27Z"/><path class="cls-2" d="M198.81,130.27l-7.45,1.28-.91-4.54H187l-.75,4.54-7.67-1,6-26.76,8.36-.56Zm-8.9-9.4-1.14-7-1.11,7Z"/></svg>