<?xml version="1.0" encoding="utf-8"?>
<!-- Generator: Adobe Illustrator 26.0.0, SVG Export Plug-In . SVG Version: 6.00 Build 0)  -->
<svg version="1.1" id="Capa_1" xmlns="http://www.w3.org/2000/svg" xmlns:xlink="http://www.w3.org/1999/xlink" x="0px" y="0px"
	 viewBox="0 0 425.2 425.2" style="enable-background:new 0 0 425.2 425.2;" xml:space="preserve">
<style type="text/css">
	.st0{fill:#FF006E;stroke:#000000;stroke-width:6;stroke-miterlimit:10;}
	.st1{fill:#FFFFFF;stroke:#000000;stroke-width:6;stroke-linecap:round;stroke-miterlimit:10;}
	.st2{fill:#FFD124;stroke:#000000;stroke-width:6;stroke-miterlimit:10;}
	.st3{fill:#FFFFFF;stroke:#000000;stroke-width:6;stroke-linejoin:round;stroke-miterlimit:10;}
	.st4{fill:none;stroke:#000000;stroke-width:6;stroke-miterlimit:10;}
	.st5{fill:#377EF9;}
	.st6{fill:none;stroke:#000000;stroke-width:6;stroke-linejoin:round;stroke-miterlimit:10;}
	.st7{fill:#FFFFFF;stroke:#000000;stroke-width:6;stroke-miterlimit:10;}
	.st8{fill:#FFFFFF;stroke:#000000;stroke-width:6;stroke-linecap:round;stroke-linejoin:round;stroke-miterlimit:10;}
</style>
<g>
	<circle class="st0" cx="88.6" cy="321.8" r="27.1"/>
	<path class="st1" d="M135.8,388.8l-0.2-25.3c0,0-1.7-9.2-13.3-11.7s-32-2.6-32-2.6h-6.1c0,0-19.4,0-30.4,2.6s-12.7,11.7-12.7,11.7
		L41,388.8"/>
</g>
<g>
	<circle class="st2" cx="211.9" cy="321.9" r="27.1"/>
	<path class="st1" d="M259.1,388.9l-0.2-25.3c0,0-1.7-9.2-13.3-11.7c-11.6-2.6-32-2.6-32-2.6h-6.1c0,0-19.4,0-30.4,2.6
		s-12.7,11.7-12.7,11.7l-0.2,25.3"/>
</g>
<g>
	<circle class="st0" cx="335.2" cy="321.9" r="27.1"/>
	<path class="st1" d="M382.4,388.9l-0.2-25.3c0,0-1.7-9.2-13.3-11.7c-11.6-2.6-32-2.6-32-2.6h-6.1c0,0-19.4,0-30.4,2.6
		s-12.7,11.7-12.7,11.7l-0.2,25.3"/>
</g>
<rect x="164.3" y="44.1" class="st3" width="218.1" height="22.5"/>
<g>
	<rect x="175" y="66.6" class="st3" width="195.6" height="157.3"/>
	<g>
		<circle class="st4" cx="273.3" cy="262.3" r="13.1"/>
		<line class="st4" x1="273.2" y1="223.9" x2="273.3" y2="249.1"/>
	</g>
</g>
<path class="st5" d="M331.1,150.8V128H320c-0.8-3-2-5.9-3.5-8.5l8.1-7.8l-16.7-16.1l-7.9,7.6c-2.7-1.5-5.7-2.7-8.7-3.6V88.4h-23.6
	v10.8c-3.1,0.8-6.1,2-8.8,3.4l-8.1-7.8L234,110.9l7.9,7.6c-1.6,2.6-2.8,5.5-3.8,8.4h-11.5v22.8h11.1c0.8,3,2,5.9,3.5,8.5l-8.1,7.8
	l16.7,16.1l7.9-7.6c2.7,1.5,5.7,2.7,8.7,3.6v11.1h23.6v-10.8c3.1-0.8,6.1-2,8.8-3.4l8.1,7.8l16.7-16.1l-7.9-7.6
	c1.6-2.6,2.8-5.5,3.8-8.4H331.1z M278.9,158.4c-11.2,0-20.2-8.7-20.2-19.5s9.1-19.5,20.2-19.5s20.2,8.7,20.2,19.5
	S290.1,158.4,278.9,158.4z"/>
<path class="st6" d="M324.1,157.3v-22.9h-10.8c-0.8-3-2-5.9-3.4-8.6l7.9-7.9l-16.2-16.2l-7.6,7.6c-2.7-1.5-5.5-2.8-8.5-3.7V94.5
	h-22.9v10.8c-3,0.8-5.9,2-8.6,3.4l-7.9-7.9l-16.2,16.2l7.6,7.6c-1.5,2.7-2.8,5.5-3.7,8.5h-11.1v22.9h10.8c0.8,3,2,5.9,3.4,8.6
	l-7.9,7.9l16.2,16.2l7.6-7.6c2.7,1.5,5.5,2.8,8.5,3.7V196h22.9v-10.8c3-0.8,5.9-2,8.6-3.4l7.9,7.9l16.2-16.2l-7.6-7.6
	c1.5-2.7,2.8-5.5,3.7-8.5H324.1z M273.4,164.9c-10.8,0-19.6-8.8-19.6-19.6s8.8-19.6,19.6-19.6s19.6,8.8,19.6,19.6
	S284.2,164.9,273.4,164.9z"/>
<g>
	<circle class="st7" cx="88.6" cy="71.2" r="27.1"/>
	<g>
		<path class="st8" d="M128.3,102.1c3.8,1.7,8,5.1,8,14.6s-0.6,64.9-0.6,64.9s-5.1,9.3-20.2,6.7v85l-27.2,0.1l-26.9,0.1v-85
			c-15.1,2.7-20.8-6.9-20.8-6.9s0-55.1,0-64.7s4.2-12.9,8-14.6C60,97.1,117.1,97,128.3,102.1z"/>
		<line class="st8" x1="88.8" y1="185.2" x2="88.4" y2="273.4"/>
	</g>
</g>
</svg>
