<?xml version="1.0" encoding="utf-8"?>
<!-- Generator: Adobe Illustrator 26.0.0, SVG Export Plug-In . SVG Version: 6.00 Build 0)  -->
<svg version="1.1" id="Capa_1" xmlns="http://www.w3.org/2000/svg" xmlns:xlink="http://www.w3.org/1999/xlink" x="0px" y="0px"
	 viewBox="0 0 425.2 425.2" style="enable-background:new 0 0 425.2 425.2;" xml:space="preserve">
<style type="text/css">
	.st0{fill:#FFFFFF;}
	.st1{fill:none;stroke:#000000;stroke-width:6;stroke-linecap:round;stroke-miterlimit:10;}
	.st2{fill:#377EF9;}
	.st3{fill:none;stroke:#000000;stroke-width:6;stroke-miterlimit:10;}
</style>
<path class="st0" d="M385.3,398.1c0-38.1-40.5-46.6-40.5-46.6s-69-0.7-79.1,0.1c-10,0.9-14.9-7.8-14.9-7.8s-0.3-18,0-32.2
	c0.3-14.1,12.2-13.8,12.2-13.8l47.8-0.3c11.5-0.8,16.4-19.6,16.4-19.6l5-43.9c17.4,3.7,21.5-5.1,19.9-10.5
	c-2.8-8.6-14.8-31.8-14.8-31.8C351.4,31.6,187.6,38.2,158,97.7l2.6,172.1c0,0-1.1,45.3-0.5,75.1c0.3,11.5-43.5,3.1-56.5,7.4
	C74.9,361.7,71.2,399,71.2,399"/>
<path class="st1" d="M159.1,269.8c0,0-1.1,45.3-0.5,75.1c0.3,11.5-44.2,3.1-57.5,7.4c-29,9.4-32.9,46.7-32.9,46.7"/>
<g>
	<g>
		<path class="st2" d="M187.7,134.6h11.4V182c0,3.1-2.5,5.7-5.7,5.7h-43v9.8v4.4c4.4,3.4,7.3,8.8,7.3,14.8
			c0,10.3-8.3,18.6-18.6,18.6s-18.6-8.3-18.6-18.6c0-5.1,2-9.7,5.3-13.1l0.1-6.1l-0.1-10.7H83.1c-3.1,0-5.7-2.5-5.7-5.7v-46.6H64.9
			h-3.8c-3.4,3.8-8.4,6.2-13.8,6.2c-10.3,0-18.6-8.3-18.6-18.6s8.3-18.6,18.6-18.6c5.9,0,11.2,2.8,14.6,7.1h4h11.7V72.8
			c0-3.1,2.5-5.7,5.7-5.7h42.5v-19v-1.2c-3.3-3.4-5.3-7.9-5.3-13c0-11,9.5-19.8,20.8-18.5c8.6,1,15.5,7.9,16.4,16.5
			c0.6,5.8-1.5,11.2-5.2,15v4.2v15.3H194c3.1,0,5.7,2.5,5.7,5.7v38.4h-10.9l-4.9,0.1c-3.4-4.4-8.7-7.2-14.7-7.2
			c-10.3,0-18.6,8.3-18.6,18.6s8.3,18.6,18.6,18.6c5.4,0,10.3-2.3,13.7-6H187.7z"/>
	</g>
</g>
<g>
	<path class="st3" d="M177.8,75.6C232.3,41,351,56,338.9,191.8c0,0,12.2,23.1,15.1,31.8c1.8,5.4-2.5,14.1-20.2,10.5l-5.1,43.9
		c0,0-5,18.8-16.7,19.6l-48.6,0.3c0,0-12.1-0.3-12.4,13.8c-0.3,14.1,0,32.2,0,32.2s5,8.6,15.2,7.8s80.4-0.1,80.4-0.1
		s41.2,8.5,41.2,46.6"/>
	<path class="st3" d="M177.8,75.6h-17V60.3v-4.2c3.7-3.8,5.8-9.2,5.2-15c-0.9-8.6-7.8-15.5-16.4-16.5c-11.3-1.3-20.8,7.5-20.8,18.5
		c0,5,2,9.6,5.3,13v1.2v19H91.6c-3.1,0-5.7,2.5-5.7,5.7v37.7H74.3h-4c-3.4-4.3-8.7-7.1-14.6-7.1c-10.3,0-18.6,8.3-18.6,18.6
		s8.3,18.6,18.6,18.6c5.5,0,10.4-2.4,13.8-6.2h3.8h12.5v46.6c0,3.1,2.5,5.7,5.7,5.7h42.6l0.1,10.7l-0.1,6.1c-3.3,3.4-5.3,8-5.3,13.1
		c0,10.3,8.3,18.6,18.6,18.6s18.6-8.3,18.6-18.6c0-6-2.9-11.4-7.3-14.8v-4.4v-9.8h43c3.1,0,5.7-2.5,5.7-5.7v-47.4H196l-4.9,0.1
		c-3.4,3.7-8.3,6-13.7,6c-10.3,0-18.6-8.3-18.6-18.6s8.3-18.6,18.6-18.6c6,0,11.3,2.8,14.7,7.2l4.9-0.1h11V81.3
		c0-3.1-2.5-5.7-5.7-5.7L177.8,75.6"/>
</g>
<path class="st1" d="M280.8,188.6c0,0,7.8,4.6,12,4.6s12.4-4.1,12.4-4.1"/>
</svg>
